<svg id="Capa_1" enable-background="new 0 0 512 512" height="512" viewBox="0 0 512 512" width="512" xmlns="http://www.w3.org/2000/svg"><g><path d="m250.775 196.73h-148.866v-183.479c0-3.07 2.489-5.558 5.558-5.558h137.75c3.07 0 5.558 2.489 5.558 5.558z" fill="#eab14d"/><path d="m233.562 7.693v189.037h17.214v-183.479c0-3.07-2.489-5.558-5.558-5.558z" fill="#e49542"/><path d="m185.754 50.521h-18.824c-2.472 0-4.476-2.004-4.476-4.476v-38.352h27.777v38.353c-.001 2.471-2.005 4.475-4.477 4.475z" fill="#df6b57"/><path d="m421.689 360.519h-228.133v-233.789h222.575c3.07 0 5.558 2.489 5.558 5.558z" fill="#f1cb86"/><path d="m404.476 126.73v233.789h17.214v-228.23c0-3.07-2.489-5.558-5.558-5.558h-11.656z" fill="#ecbe6b"/><path d="m317.035 169.558h-18.825c-2.472 0-4.476-2.004-4.476-4.476v-38.352h27.777v38.353c0 2.471-2.004 4.475-4.476 4.475z" fill="#365e7d"/><path d="m276.366 504.308h-268.866v-178.231c0-3.07 2.489-5.558 5.558-5.558h263.308z" fill="#eab14d"/><path d="m259.153 320.519h17.214v183.789h-17.214z" fill="#e49542"/><path d="m151.345 363.347h-18.825c-2.472 0-4.476-2.004-4.476-4.476v-38.353h27.777v38.353c0 2.472-2.004 4.476-4.476 4.476z" fill="#365e7d"/><path d="m504.5 504.308h-228.134v-143.789h222.575c3.07 0 5.558 2.489 5.558 5.558v138.231z" fill="#eab14d"/><path d="m487.286 360.519v143.789h17.214v-138.23c0-3.07-2.489-5.558-5.558-5.558h-11.656z" fill="#e49542"/><path d="m399.845 403.347h-18.825c-2.472 0-4.476-2.004-4.476-4.476v-38.353h27.777v38.353c0 2.472-2.004 4.476-4.476 4.476z" fill="#df6b57"/><path d="m193.556 320.519h-148.866v-118.23c0-3.07 2.489-5.558 5.558-5.558h143.308z" fill="#f1cb86"/><path d="m176.342 196.73h17.214v123.789h-17.214z" fill="#ecbe6b"/><path d="m128.535 239.558h-18.825c-2.472 0-4.476-2.004-4.476-4.476v-38.352h27.777v38.353c0 2.471-2.004 4.475-4.476 4.475z" fill="#df6b57"/><path d="m498.942 353.018h-69.752v-114.744c0-4.143-3.357-7.5-7.5-7.5s-7.5 3.357-7.5 7.5v114.744c-15.36 0-113.903 0-130.323 0v-32.5c0-4.143-3.357-7.5-7.5-7.5h-75.311c0-9.222 0-163.488 0-178.789h85.179v30.854c0 6.604 5.372 11.976 11.976 11.976h18.824c6.604 0 11.977-5.372 11.977-11.976v-30.854h85.179v74.059c0 4.143 3.357 7.5 7.5 7.5s7.5-3.357 7.5-7.5v-76c0-7.2-5.858-13.059-13.059-13.059-36.814 0-123.594 0-157.855 0v-105.978c0-7.2-5.858-13.059-13.059-13.059h-137.75c-7.201 0-13.059 5.858-13.059 13.059v47.416c0 4.143 3.358 7.5 7.5 7.5s7.5-3.357 7.5-7.5v-45.475h45.545v30.854c0 6.604 5.372 11.976 11.976 11.976h18.825c6.604 0 11.976-5.372 11.976-11.976v-30.854h45.545v104.037h-49.719c-4.142 0-7.5 3.357-7.5 7.5v62.5h-76.647v-98.576c0-4.143-3.358-7.5-7.5-7.5s-7.5 3.357-7.5 7.5v98.577h-44.162c-7.201 0-13.059 5.857-13.059 13.058v110.73h-24.131c-7.2 0-13.058 5.858-13.058 13.059v178.23c0 4.143 3.358 7.5 7.5 7.5h79.416c4.142 0 7.5-3.357 7.5-7.5s-3.358-7.5-7.5-7.5h-71.916v-168.789h105.545v30.853c0 6.604 5.373 11.977 11.976 11.977h18.824c6.604 0 11.976-5.373 11.976-11.977v-30.853h105.545v168.789h-151.964c-4.142 0-7.5 3.357-7.5 7.5s3.358 7.5 7.5 7.5h387.597c4.143 0 7.5-3.357 7.5-7.5v-138.23c.001-7.2-5.857-13.059-13.057-13.059zm-316.212-309.997h-12.776v-27.828h12.776zm131.281 91.208v27.829h-12.776v-27.829zm-201.277 70.001h12.777v27.828h-12.777zm-60.545 0h45.545v30.853c0 6.604 5.373 11.976 11.976 11.976h18.825c6.604 0 11.976-5.372 11.976-11.976v-30.853h45.545v108.788c-28.991 0-109.636 0-133.867 0zm96.132 151.617h-12.776v-27.829h12.776zm248.501 12.171v27.829h-12.777v-27.829zm100.178 128.789h-213.133v-128.789h85.178v30.853c0 6.604 5.373 11.977 11.977 11.977h18.824c6.604 0 11.977-5.373 11.977-11.977v-30.853h85.178v128.789z"/></g></svg>