<svg id="Capa_1" enable-background="new 0 0 512 512" height="512" viewBox="0 0 512 512" width="512" xmlns="http://www.w3.org/2000/svg"><g><g><path d="m512 371.364h-230.248l13.213-22.588c17.188-29.271-4.021-67.412-38.965-67.412-34.952 0-56.142 38.159-38.965 67.412l13.213 22.588h-230.248v-360h512z" fill="#fed843"/></g><path d="m294.965 348.776-13.213 22.588h230.248v-360h-256v270c34.944 0 56.153 38.141 38.965 67.412z" fill="#fabe2c"/><g><path d="m421 311.364h-121.699l-4.336-7.427c-8.262-14.136-22.822-22.573-38.965-22.573s-30.703 8.438-38.965 22.573l-4.336 7.427h-121.699v-15c0-8.276-6.738-15-15-15h-15v-180h15c8.262 0 15-6.724 15-15v-15h330v15c0 8.276 6.738 15 15 15h15v180h-15c-8.262 0-15 6.724-15 15z" fill="#fff5f5"/></g><path d="m294.965 303.937 4.336 7.427h121.699v-15c0-8.276 6.738-15 15-15h15v-180h-15c-8.262 0-15-6.724-15-15v-15h-165v210c16.143 0 30.703 8.437 38.965 22.573z" fill="#efe2dd"/><g id="Diploma_2_"><g><path d="m211 131.364h90v30h-90z" fill="#efe2dd"/></g><g><path d="m121 191.364h270v30h-270z" fill="#efe2dd"/></g></g><path d="m211 371.364v129.272l45-22.5 45 22.5v-129.272z" fill="#f03800"/><path d="m256 191.364h135v30h-135z" fill="#e1d3ce"/><path d="m256 131.364h45v30h-45z" fill="#e1d3ce"/><path d="m301 371.364h-45v106.772l45 22.5z" fill="#cd0000"/><circle cx="256" cy="326.364" fill="#ff641a" r="75"/><path d="m331 326.364c0-41.422-33.578-75-75-75v150c41.422 0 75-33.58 75-75z" fill="#f03800"/><g><path d="m241 311.364h30v30h-30z" fill="#f03800"/></g><path d="m256 311.364h15v30h-15z" fill="#cd0000"/></g></svg>