<svg id="Layer_1" enable-background="new 0 0 128 128" height="512" viewBox="0 0 128 128" width="512" xmlns="http://www.w3.org/2000/svg"><g><g><circle cx="65.887" cy="65.887" fill="#e6e7e8" r="52.755"/></g><g><ellipse cx="61.887" cy="61.887" fill="#fa759e" rx="51.529" ry="51.529" transform="matrix(.973 -.23 .23 .973 -12.563 15.874)"/><g><path d="m61.887 13.358c27.956 0 50.696 22.267 51.491 50.03.018-.499.038-.998.038-1.501 0-28.459-23.07-51.529-51.529-51.529s-51.529 23.07-51.529 51.529c0 .503.02 1.002.038 1.501.795-27.764 23.535-50.03 51.491-50.03z" fill="#fff"/></g><g><path d="m85.587 52.042h-11.547c-1.955 0-3.688-1.259-4.292-3.119l-3.568-10.981c-1.351-4.158-7.234-4.158-8.585 0l-3.568 10.982c-.604 1.86-2.337 3.119-4.292 3.119h-11.548c-4.372 0-6.19 5.595-2.653 8.165l9.342 6.787c1.582 1.149 2.244 3.187 1.64 5.046l-3.568 10.982c-1.351 4.158 3.408 7.616 6.945 5.046l9.342-6.787c1.582-1.149 3.724-1.149 5.306 0l9.342 6.787c3.537 2.57 8.297-.888 6.945-5.046l-3.568-10.982c-.604-1.86.058-3.897 1.64-5.046l9.342-6.787c3.535-2.571 1.718-8.166-2.655-8.166z" fill="#ffd7e5"/><g fill="#3a2c60"><path d="m84.618 107.028c-2.084 1.051-4.261 1.965-6.47 2.715-.523.178-.803.746-.625 1.269.142.416.53.679.947.679.106 0 .215-.018.322-.054 2.296-.78 4.56-1.73 6.727-2.824.493-.249.691-.85.442-1.343s-.852-.693-1.343-.442z"/><path d="m61.887 9.358c-28.965 0-52.53 23.565-52.53 52.53s23.565 52.529 52.53 52.529c3.845 0 7.682-.417 11.402-1.241.539-.12.879-.653.76-1.193-.12-.539-.656-.88-1.193-.76-3.579.792-7.27 1.194-10.97 1.194-27.862 0-50.53-22.667-50.53-50.529s22.667-50.53 50.53-50.53c27.862 0 50.529 22.667 50.529 50.53 0 17.292-8.7 33.201-23.272 42.555-.465.298-.6.917-.301 1.381s.917.6 1.381.301c15.148-9.723 24.192-26.261 24.192-44.237.002-28.966-23.563-52.53-52.528-52.53z"/><path d="m41.996 82.714c-.752 2.314.034 4.733 2.003 6.164s4.513 1.43 6.482 0l9.341-6.787c1.235-.897 2.895-.897 4.13 0l9.342 6.787c.984.715 2.113 1.073 3.241 1.073s2.256-.358 3.241-1.073c1.969-1.43 2.755-3.85 2.003-6.164l-3.569-10.982c-.472-1.452.041-3.031 1.276-3.928l9.342-6.787c1.968-1.43 2.754-3.85 2.003-6.164-.752-2.314-2.811-3.81-5.244-3.81h-11.547c-1.526 0-2.869-.976-3.341-2.428l-3.568-10.982c-.752-2.314-2.81-3.81-5.244-3.81s-4.492 1.496-5.244 3.81l-3.568 10.982c-.472 1.452-1.815 2.428-3.341 2.428h-11.547c-2.434 0-4.492 1.496-5.244 3.81-.751 2.314.035 4.734 2.003 6.164l9.342 6.787c1.235.897 1.749 2.476 1.276 3.928zm3.468-16.529-9.342-6.787c-1.522-1.106-1.658-2.754-1.276-3.928.381-1.174 1.459-2.428 3.342-2.428h11.547c2.396 0 4.503-1.531 5.244-3.81l3.568-10.982c.582-1.79 2.107-2.428 3.341-2.428s2.76.638 3.341 2.428l3.568 10.982c.741 2.279 2.848 3.81 5.244 3.81h11.547c1.882 0 2.96 1.254 3.341 2.428.381 1.173.246 2.822-1.276 3.928l-9.342 6.787c-1.938 1.408-2.743 3.885-2.003 6.165l3.568 10.982c.582 1.79-.278 3.203-1.276 3.928-.999.727-2.607 1.107-4.13 0l-9.342-6.787c-1.939-1.409-4.544-1.408-6.482 0l-9.341 6.787c-1.523 1.106-3.132.725-4.131 0-.998-.726-1.857-2.138-1.276-3.928l3.568-10.982c.741-2.279-.064-4.756-2.002-6.165z"/></g></g></g></g></svg>